<svg id="Layer_1" data-name="Layer 1" xmlns="http://www.w3.org/2000/svg" viewBox="0 0 200 200"><defs><style>.cls-1{fill:#00b3c4;}</style></defs><title>Artboard 1</title><path class="cls-1" d="M179.57,127.25l-20.8-36a4.64,4.64,0,0,0-4-2.32H136.47l9.09-15.76a4.6,4.6,0,0,0,0-4.62l-20.79-36a4.66,4.66,0,0,0-4-2.31H79.1a4.64,4.64,0,0,0-4,2.31l-20.86,36a4.61,4.61,0,0,0,0,4.64L63.39,89H45.3a4.64,4.64,0,0,0-4,2.31l-20.86,36a4.65,4.65,0,0,0,0,4.65l21,36a4.64,4.64,0,0,0,4,2.3H87a4.67,4.67,0,0,0,4-2.32l9-15.58,9.22,15.62a4.66,4.66,0,0,0,4,2.27h41.59a4.66,4.66,0,0,0,4-2.31l20.78-36A4.66,4.66,0,0,0,179.57,127.25ZM79.76,36h37L98.31,68H61.23ZM27.45,132.48H64.52l18.46,32H46.06Zm75.74,13.93a3.77,3.77,0,0,0-3.23-1.85h0a3.8,3.8,0,0,0-3.24,1.88L88,161.55l-18.46-32,16.85-29.19a8.71,8.71,0,1,0-5-2.89L64.52,126.7H27.44L46,94.73H66.9a3.75,3.75,0,0,0,3.25-5.64L61.24,73.77H98.31L115.18,103a8.69,8.69,0,1,0,5-2.89L103.31,70.88l18.46-32,18.46,32-10.5,18.2A3.76,3.76,0,0,0,133,94.71h17.79l-18.46,32H98.43a8.72,8.72,0,1,0,0,5.77h33.89l18.46,32H113.84Zm52.59,15.13-18.46-32,18.45-32,18.47,32Z"/></svg>