<svg id="Layer_1" data-name="Layer 1" xmlns="http://www.w3.org/2000/svg" viewBox="0 0 540.51 706.56"><defs><style>.cls-1{opacity:0.5;}.cls-2{opacity:0.8;}.cls-3,.cls-5{fill:#fff;}.cls-3,.cls-4{opacity:0.9;}.cls-6{fill:none;stroke:gray;stroke-miterlimit:10;stroke-width:0.07px;}.cls-7{opacity:0.4;}.cls-8{opacity:0.2;}</style></defs><title>hero-wires</title><g class="cls-1"><g class="cls-2"><polygon class="cls-3" points="214.59 244.58 182.93 298.32 182.75 298.21 214.41 244.47 214.59 244.58"/><polygon class="cls-3" points="307.35 308.94 307.33 309.14 182.84 298.38 182.85 298.16 307.35 308.94"/><polygon class="cls-3" points="307.41 308.95 307.29 309.13 214.44 244.61 214.56 244.44 307.41 308.95"/><polygon class="cls-3" points="307.41 309.13 242.04 353.25 241.92 353.07 307.29 308.95 307.41 309.13"/><g class="cls-4"><polygon class="cls-5" points="395.7 344.44 395.62 344.64 307.31 309.14 307.39 308.94 395.7 344.44"/></g><polygon class="cls-3" points="355.05 385.06 354.87 385.18 307.25 309.1 307.44 308.98 355.05 385.06"/><path class="cls-6" d="M372.44,182.56" transform="translate(23.22 161.97)"/><polygon class="cls-3" points="395.74 344.61 355.03 385.19 354.88 385.04 395.58 344.47 395.74 344.61"/><polygon class="cls-3" points="395.76 344.55 382.89 454.19 382.68 454.16 395.56 344.52 395.76 344.55"/><polygon class="cls-3" points="382.88 454.14 382.68 454.21 354.86 385.16 355.05 385.08 382.88 454.14"/><polygon class="cls-3" points="355.02 385.2 296.72 432.29 296.6 432.13 354.88 385.04 355.02 385.2"/><polygon class="cls-3" points="354.98 385.22 256.91 408.08 256.86 407.87 354.93 385.01 354.98 385.22"/><polygon class="cls-3" points="354.98 385.01 354.92 385.22 241.95 353.26 242.01 353.06 354.98 385.01"/><polygon class="cls-3" points="307.44 309.09 256.99 408.02 256.8 407.93 307.25 308.99 307.44 309.09"/><polygon class="cls-3" points="307.45 309.05 296.77 432.22 296.55 432.2 307.25 309.04 307.45 309.05"/><polygon class="cls-3" points="296.71 432.12 296.6 432.3 255.85 408.01 255.96 407.83 296.71 432.12"/><polygon class="cls-3" points="182.87 298.37 100.6 323.27 100.54 323.06 182.81 298.17 182.87 298.37"/><rect class="cls-3" x="163.98" y="136.11" width="0.21" height="106.04" transform="translate(7.82 176.52) rotate(-4.85)"/><polygon class="cls-3" points="242.05 353.08 241.91 353.24 182.77 298.35 182.91 298.19 242.05 353.08"/><polygon class="cls-3" points="242.05 353.24 191.85 404 191.69 403.86 241.91 353.08 242.05 353.24"/><polygon class="cls-3" points="256.99 407.95 256.79 408.01 241.88 353.19 242.08 353.14 256.99 407.95"/><polygon class="cls-3" points="242.08 353.17 224.55 450.42 224.34 450.38 241.88 353.14 242.08 353.17"/><polygon class="cls-3" points="256.97 408.04 224.53 450.46 224.36 450.33 256.81 407.92 256.97 408.04"/><polygon class="cls-3" points="256.9 407.87 256.88 408.08 191.76 404.04 191.77 403.82 256.9 407.87"/><path class="cls-6" d="M233.67,246" transform="translate(23.22 161.97)"/><polygon class="cls-3" points="191.78 403.82 191.76 404.04 138.06 397.66 138.08 397.45 191.78 403.82"/><polygon class="cls-3" points="191.85 403.85 191.7 404.01 100.5 323.24 100.64 323.09 191.85 403.85"/><polygon class="cls-3" points="138.16 397.51 137.98 397.61 100.47 323.21 100.66 323.12 138.16 397.51"/><polygon class="cls-3" points="192.49 442.26 192.35 442.43 138 397.64 138.13 397.47 192.49 442.26"/><polygon class="cls-3" points="138.11 397.65 75.44 429.1 75.35 428.91 138.02 397.46 138.11 397.65"/><polygon class="cls-3" points="192.52 442.34 192.31 442.35 191.67 403.93 191.87 403.93 192.52 442.34"/><polygon class="cls-3" points="224.48 450.3 224.43 450.51 192.39 442.45 192.44 442.24 224.48 450.3"/><polygon class="cls-3" points="233.37 493.34 233.17 493.38 224.34 450.42 224.55 450.38 233.37 493.34"/><polygon class="cls-3" points="224.47 450.51 160.98 464.58 160.93 464.39 224.43 450.3 224.47 450.51"/><polygon class="cls-3" points="192.42 442.45 102.06 448.96 102.05 448.75 192.4 442.24 192.42 442.45"/><polygon class="cls-3" points="192.48 442.43 161.01 464.57 160.9 464.4 192.35 442.26 192.48 442.43"/><polygon class="cls-3" points="192.46 442.44 60.09 499.17 60.01 498.98 192.37 442.25 192.46 442.44"/><polygon class="cls-3" points="102.11 448.78 102 448.94 75.33 429.09 75.46 428.93 102.11 448.78"/><polygon class="cls-3" points="102.13 448.92 60.13 499.14 59.97 499.01 101.98 448.79 102.13 448.92"/><polygon class="cls-3" points="148.83 469.7 148.74 469.89 102.01 448.95 102.09 448.76 148.83 469.7"/><polygon class="cls-3" points="161 464.58 148.83 469.9 148.75 469.7 160.91 464.39 161 464.58"/><rect class="cls-3" x="106.09" y="323.38" width="32.08" height="0.21" transform="translate(-196.79 535.41) rotate(-77.62)"/><polygon class="cls-3" points="148.82 469.9 60.08 499.17 60.02 498.97 148.76 469.69 148.82 469.9"/><polygon class="cls-3" points="208.91 511.25 208.89 511.46 141.89 501.23 141.93 501.02 208.91 511.25"/><polygon class="cls-3" points="141.91 501.23 60.04 499.18 60.05 498.97 141.92 501.02 141.91 501.23"/><rect class="cls-3" x="118.53" y="335.17" width="91.68" height="0.21" transform="matrix(1, -0.08, 0.08, 1, -4.6, 177.11)"/><polygon class="cls-3" points="233.33 493.45 208.97 511.44 208.84 511.28 233.2 493.27 233.33 493.45"/><polygon class="cls-3" points="274.4 525.39 274.35 525.6 208.88 511.46 208.92 511.25 274.4 525.39"/><polygon class="cls-3" points="365.47 515.13 208.9 511.46 208.91 511.25 365.48 514.92 365.47 515.13"/><polygon class="cls-3" points="403.22 533.4 403.2 533.61 274.37 525.6 274.38 525.39 403.22 533.4"/><polygon class="cls-3" points="315.93 490.55 274.44 525.58 274.31 525.42 315.79 490.38 315.93 490.55"/><polygon class="cls-3" points="393.32 489.31 274.4 525.6 274.35 525.39 393.25 489.11 393.32 489.31"/><polygon class="cls-3" points="403.25 533.42 403.16 533.61 365.43 515.12 365.53 514.93 403.25 533.42"/><polygon class="cls-3" points="393.36 489.29 365.55 515.11 365.4 514.95 393.22 489.13 393.36 489.29"/><polygon class="cls-3" points="365.53 514.93 365.43 515.12 315.81 490.56 315.9 490.37 365.53 514.93"/><polygon class="cls-3" points="354.79 485.73 315.87 490.56 315.84 490.36 354.76 485.52 354.79 485.73"/><polygon class="cls-3" points="315.9 490.37 315.81 490.56 277.67 471.84 277.76 471.65 315.9 490.37"/><polygon class="cls-3" points="355.05 385.15 315.96 490.5 315.76 490.42 354.86 385.08 355.05 385.15"/><polygon class="cls-3" points="393.46 488 393.25 488.06 382.68 454.2 382.88 454.15 393.46 488"/><polygon class="cls-3" points="382.86 454.25 354.85 485.69 354.7 485.56 382.7 454.11 382.86 454.25"/><polygon class="cls-3" points="382.8 454.29 277.74 471.85 277.7 471.64 382.76 454.07 382.8 454.29"/><polygon class="cls-3" points="365.57 515 365.38 515.07 354.67 485.67 354.87 485.59 365.57 515"/><polygon class="cls-3" points="404.55 533.51 404.4 533.66 354.7 485.7 354.84 485.55 404.55 533.51"/><polygon class="cls-3" points="354.88 485.63 354.67 485.62 354.85 385.12 355.06 385.12 354.88 485.63"/><polygon class="cls-3" points="277.83 471.75 274.49 525.5 274.27 525.49 277.61 471.74 277.83 471.75"/><polygon class="cls-3" points="280.78 472.03 233.31 493.45 233.22 493.26 280.7 471.84 280.78 472.03"/><polygon class="cls-3" points="296.76 432.26 277.82 471.79 277.62 471.7 296.57 432.17 296.76 432.26"/><path class="cls-5" d="M79,283.86a3,3,0,1,1-3.21,2.84A3,3,0,0,1,79,283.86Z" transform="translate(23.22 161.97)"/><path class="cls-5" d="M115,232.56a3,3,0,1,1-3.2,2.84A3,3,0,0,1,115,232.56Z" transform="translate(23.22 161.97)"/><path class="cls-5" d="M125.77,304.8a3,3,0,1,1-3.21,2.84A3,3,0,0,1,125.77,304.8Z" transform="translate(23.22 161.97)"/><path class="cls-5" d="M137.93,299.49a3,3,0,1,1-3.21,2.83A3,3,0,0,1,137.93,299.49Z" transform="translate(23.22 161.97)"/><path class="cls-5" d="M201.42,285.4a3,3,0,1,1-3.21,2.84A3,3,0,0,1,201.42,285.4Z" transform="translate(23.22 161.97)"/><path class="cls-5" d="M168.73,238.93a3,3,0,1,1-3.2,2.84A3,3,0,0,1,168.73,238.93Z" transform="translate(23.22 161.97)"/><path class="cls-5" d="M233.86,243a3,3,0,1,1-3.21,2.84A3,3,0,0,1,233.86,243Z" transform="translate(23.22 161.97)"/><path class="cls-5" d="M169.38,277.35a3,3,0,1,1-3.21,2.84A3,3,0,0,1,169.38,277.35Z" transform="translate(23.22 161.97)"/><path class="cls-5" d="M292.83,325.47a3,3,0,1,1-3.2,2.84A3,3,0,0,1,292.83,325.47Z" transform="translate(23.22 161.97)"/><path class="cls-5" d="M359.75,289.18a3,3,0,1,1-3.21,2.84A3,3,0,0,1,359.75,289.18Z" transform="translate(23.22 161.97)"/><path class="cls-5" d="M331.92,220.12a3,3,0,1,1-3.21,2.84A3,3,0,0,1,331.92,220.12Z" transform="translate(23.22 161.97)"/><path class="cls-5" d="M273.63,267.21a3,3,0,1,1-3.2,2.84A3,3,0,0,1,273.63,267.21Z" transform="translate(23.22 161.97)"/><path class="cls-5" d="M370.25,324.22a3,3,0,1,1-3.21,2.84A3,3,0,0,1,370.25,324.22Z" transform="translate(23.22 161.97)"/><path class="cls-5" d="M210.23,328.37A3,3,0,1,1,207,331.2,3,3,0,0,1,210.23,328.37Z" transform="translate(23.22 161.97)"/><path class="cls-5" d="M284.31,144a3,3,0,1,1-3.21,2.84A3,3,0,0,1,284.31,144Z" transform="translate(23.22 161.97)"/><path class="cls-5" d="M372.63,179.54a3,3,0,1,1-3.21,2.84A3,3,0,0,1,372.63,179.54Z" transform="translate(23.22 161.97)"/><path class="cls-5" d="M159.81,133.28a3,3,0,1,1-3.21,2.83A3,3,0,0,1,159.81,133.28Z" transform="translate(23.22 161.97)"/><path class="cls-5" d="M191.46,79.53a3,3,0,1,1-3.2,2.84A3,3,0,0,1,191.46,79.53Z" transform="translate(23.22 161.97)"/><path class="cls-5" d="M77.53,158.17A3,3,0,1,1,74.33,161,3,3,0,0,1,77.53,158.17Z" transform="translate(23.22 161.97)"/><path class="cls-5" d="M218.95,188.17a3,3,0,1,1-3.21,2.84A3,3,0,0,1,218.95,188.17Z" transform="translate(23.22 161.97)"/><path class="cls-5" d="M52.36,264a3,3,0,1,1-3.21,2.84A3,3,0,0,1,52.36,264Z" transform="translate(23.22 161.97)"/><path class="cls-5" d="M37,334.08a3,3,0,1,1-3.21,2.83A3,3,0,0,1,37,334.08Z" transform="translate(23.22 161.97)"/><path class="cls-5" d="M118.88,336.13a3,3,0,1,1-3.21,2.84A3,3,0,0,1,118.88,336.13Z" transform="translate(23.22 161.97)"/><path class="cls-5" d="M185.87,346.36a3,3,0,1,1-3.21,2.84A3,3,0,0,1,185.87,346.36Z" transform="translate(23.22 161.97)"/><path class="cls-5" d="M251.35,360.5a3,3,0,1,1-3.21,2.84A3,3,0,0,1,251.35,360.5Z" transform="translate(23.22 161.97)"/><path class="cls-5" d="M254.69,306.75a3,3,0,1,1-3.2,2.83A3,3,0,0,1,254.69,306.75Z" transform="translate(23.22 161.97)"/><path class="cls-5" d="M331.74,320.63a3,3,0,1,1-3.2,2.84A3,3,0,0,1,331.74,320.63Z" transform="translate(23.22 161.97)"/><path class="cls-5" d="M342.44,350a3,3,0,1,1-3.21,2.83A3,3,0,0,1,342.44,350Z" transform="translate(23.22 161.97)"/><path class="cls-5" d="M380.18,368.51a3,3,0,1,1-3.21,2.83A3,3,0,0,1,380.18,368.51Z" transform="translate(23.22 161.97)"/></g><g class="cls-1"><polygon class="cls-3" points="436.34 263.42 396.2 286.57 396.12 286.43 436.27 263.29 436.34 263.42"/><polygon class="cls-3" points="472.73 339 472.65 339.13 396.12 286.57 396.21 286.43 472.73 339"/><polygon class="cls-3" points="472.76 339.04 472.62 339.1 436.24 263.39 436.38 263.32 472.76 339.04"/><polygon class="cls-3" points="472.7 339.15 414.29 343.72 414.27 343.56 472.69 338.99 472.7 339.15"/><g class="cls-4"><polygon class="cls-5" points="516.84 394.31 516.71 394.41 472.63 339.12 472.75 339.02 516.84 394.31"/></g><polygon class="cls-3" points="475.68 405.68 475.52 405.69 472.61 339.07 472.77 339.06 475.68 405.68"/><path class="cls-6" d="M493.56,232.39" transform="translate(23.22 161.97)"/><polygon class="cls-3" points="516.8 394.44 475.62 405.76 475.57 405.6 516.75 394.29 516.8 394.44"/><polygon class="cls-3" points="516.84 394.41 468.35 460.56 468.23 460.46 516.71 394.31 516.84 394.41"/><polygon class="cls-3" points="468.37 460.53 468.21 460.5 475.52 405.67 475.67 405.69 468.37 460.53"/><polygon class="cls-3" points="475.61 405.76 420.68 414.85 420.65 414.69 475.58 405.61 475.61 405.76"/><polygon class="cls-3" points="475.57 405.76 403.81 384.61 403.86 384.46 475.62 405.61 475.57 405.76"/><polygon class="cls-3" points="475.65 405.63 475.54 405.74 414.22 343.7 414.33 343.58 475.65 405.63"/><polygon class="cls-3" points="472.74 339.13 403.88 384.6 403.8 384.47 472.65 339 472.74 339.13"/><polygon class="cls-3" points="472.76 339.11 420.73 414.81 420.6 414.72 472.63 339.03 472.76 339.11"/><polygon class="cls-3" points="420.73 414.73 420.6 414.81 403.15 384.18 403.29 384.1 420.73 414.73"/><polygon class="cls-3" points="396.14 286.57 333.84 272.53 333.88 272.38 396.17 286.42 396.14 286.57"/><rect class="cls-3" x="317.08" y="160.23" width="78.78" height="0.15" transform="translate(85.13 579.2) rotate(-65.31)"/><polygon class="cls-3" points="414.35 343.62 414.2 343.67 396.08 286.53 396.23 286.47 414.35 343.62"/><polygon class="cls-3" points="414.3 343.72 363.25 358.14 363.2 357.99 414.26 343.57 414.3 343.72"/><polygon class="cls-3" points="403.91 384.56 403.76 384.52 414.2 343.63 414.35 343.66 403.91 384.56"/><polygon class="cls-3" points="414.34 343.69 367.39 400.12 367.27 400.02 414.22 343.59 414.34 343.69"/><polygon class="cls-3" points="403.86 384.61 367.36 400.14 367.3 400 403.81 384.47 403.86 384.61"/><polygon class="cls-3" points="403.88 384.47 403.79 384.6 363.18 358.13 363.27 358 403.88 384.47"/><path class="cls-6" d="M380.62,222.56" transform="translate(23.22 161.97)"/><polygon class="cls-3" points="363.27 358 363.18 358.13 330.8 334.34 330.89 334.21 363.27 358"/><polygon class="cls-3" points="363.31 358.04 363.15 358.09 333.79 272.48 333.93 272.43 363.31 358.04"/><polygon class="cls-3" points="330.93 334.28 330.77 334.28 333.78 272.45 333.94 272.46 330.93 334.28"/><polygon class="cls-3" points="349.65 383.1 349.5 383.17 330.77 334.31 330.92 334.25 349.65 383.1"/><polygon class="cls-3" points="330.84 334.36 278.81 331.72 278.82 331.57 330.85 334.2 330.84 334.36"/><polygon class="cls-3" points="349.64 383.17 349.5 383.1 363.16 358.03 363.29 358.1 349.64 383.17"/><polygon class="cls-3" points="367.38 400.02 367.27 400.13 349.52 383.19 349.63 383.08 367.38 400.02"/><polygon class="cls-3" points="357.37 431.1 357.22 431.05 367.25 400.05 367.4 400.1 357.37 431.1"/><polygon class="cls-3" points="367.3 400.15 321.11 385.99 321.15 385.85 367.35 400 367.3 400.15"/><polygon class="cls-3" points="349.54 383.2 288.75 354.31 288.81 354.17 349.6 383.06 349.54 383.2"/><polygon class="cls-3" points="349.58 383.21 321.13 386 321.12 385.84 349.56 383.06 349.58 383.21"/><rect class="cls-3" x="273.1" y="161.75" width="0.15" height="106.99" transform="translate(52.3 624.96) rotate(-83.66)"/><polygon class="cls-3" points="288.85 354.21 288.71 354.27 278.75 331.68 278.89 331.62 288.85 354.21"/><polygon class="cls-3" points="288.8 354.31 243.26 371.39 243.21 371.25 288.75 354.17 288.8 354.31"/><polygon class="cls-3" points="311.38 384.85 311.25 384.94 288.72 354.29 288.84 354.2 311.38 384.85"/><polygon class="cls-3" points="321.12 386 311.31 384.98 311.33 384.82 321.14 385.84 321.12 386"/><rect class="cls-3" x="268.22" y="231.71" width="23.84" height="0.16" transform="translate(-56.27 447.36) rotate(-48.08)"/><polygon class="cls-3" points="311.3 384.98 243.22 371.39 243.25 371.24 311.34 384.82 311.3 384.98"/><polygon class="cls-3" points="335 433.72 334.9 433.84 295.34 402.69 295.44 402.57 335 433.72"/><polygon class="cls-3" points="295.36 402.7 243.19 371.38 243.27 371.25 295.44 402.57 295.36 402.7"/><rect class="cls-3" x="303.04" y="220.82" width="0.15" height="68.12" transform="translate(-31.82 585.87) rotate(-65.32)"/><polygon class="cls-3" points="357.3 431.15 334.96 433.86 334.94 433.71 357.28 431 357.3 431.15"/><polygon class="cls-3" points="372.14 466.85 372.04 466.96 334.9 433.84 335 433.72 372.14 466.85"/><polygon class="cls-3" points="434.77 493.57 334.91 433.85 334.99 433.71 434.85 493.44 434.77 493.57"/><polygon class="cls-3" points="452.48 519.21 452.39 519.34 372.05 466.97 372.13 466.84 452.48 519.21"/><polygon class="cls-3" points="411.75 459.54 372.1 466.99 372.07 466.83 411.72 459.38 411.75 459.54"/><polygon class="cls-3" points="462.23 487.08 372.07 466.98 372.11 466.83 462.26 486.93 462.23 487.08"/><polygon class="cls-3" points="452.5 519.23 452.37 519.32 434.75 493.55 434.88 493.46 452.5 519.23"/><polygon class="cls-3" points="462.26 487.08 434.83 493.59 434.79 493.43 462.23 486.93 462.26 487.08"/><polygon class="cls-3" points="434.88 493.46 434.75 493.55 411.68 459.5 411.8 459.41 434.88 493.46"/><polygon class="cls-3" points="438.63 470.65 411.71 459.52 411.77 459.38 438.69 470.51 438.63 470.65"/><polygon class="cls-3" points="411.8 459.41 411.68 459.5 393.88 433.43 394 433.34 411.8 459.41"/><polygon class="cls-3" points="475.65 405.74 411.79 459.52 411.69 459.39 475.55 405.62 475.65 405.74"/><polygon class="cls-3" points="462.8 486.29 462.64 486.25 468.21 460.49 468.36 460.53 462.8 486.29"/><polygon class="cls-3" points="468.31 460.59 438.69 470.65 438.64 470.51 468.26 460.44 468.31 460.59"/><rect class="cls-3" x="407.81" y="245.4" width="0.16" height="79.14" transform="translate(23.57 732.43) rotate(-69.95)"/><polygon class="cls-3" points="434.88 493.52 434.74 493.5 438.58 470.57 438.74 470.59 434.88 493.52"/><polygon class="cls-3" points="453.3 519.76 453.14 519.81 438.58 470.61 438.73 470.56 453.3 519.76"/><polygon class="cls-3" points="438.73 470.62 438.6 470.54 475.53 405.65 475.66 405.72 438.73 470.62"/><polygon class="cls-3" points="394.01 433.43 372.16 466.95 372.02 466.86 393.87 433.34 394.01 433.43"/><polygon class="cls-3" points="395.82 434.69 357.28 431.15 357.3 431 395.83 434.54 395.82 434.69"/><rect class="cls-3" x="367.8" y="262.02" width="32.57" height="0.16" transform="translate(-57.67 428.53) rotate(-34.86)"/><path class="cls-5" d="M266.79,190.38a2.25,2.25,0,1,1-3.11.66A2.25,2.25,0,0,1,266.79,190.38Z" transform="translate(23.22 161.97)"/><path class="cls-5" d="M308.86,170.42a2.25,2.25,0,1,1-3.11.66A2.25,2.25,0,0,1,308.86,170.42Z" transform="translate(23.22 161.97)"/><path class="cls-5" d="M289.33,221a2.25,2.25,0,1,1-3.12.66A2.25,2.25,0,0,1,289.33,221Z" transform="translate(23.22 161.97)"/><path class="cls-5" d="M299.14,222.07a2.24,2.24,0,1,1-3.11.65A2.24,2.24,0,0,1,299.14,222.07Z" transform="translate(23.22 161.97)"/><path class="cls-5" d="M345.34,236.21a2.25,2.25,0,1,1-3.12.66A2.25,2.25,0,0,1,345.34,236.21Z" transform="translate(23.22 161.97)"/><path class="cls-5" d="M341.23,194.2a2.25,2.25,0,1,1-3.11.66A2.25,2.25,0,0,1,341.23,194.2Z" transform="translate(23.22 161.97)"/><path class="cls-5" d="M381.84,220.68a2.25,2.25,0,1,1-3.11.66A2.25,2.25,0,0,1,381.84,220.68Z" transform="translate(23.22 161.97)"/><path class="cls-5" d="M327.58,219.28a2.25,2.25,0,1,1-3.12.66A2.25,2.25,0,0,1,327.58,219.28Z" transform="translate(23.22 161.97)"/><path class="cls-5" d="M389.75,295.6a2.25,2.25,0,1,1-3.11.66A2.25,2.25,0,0,1,389.75,295.6Z" transform="translate(23.22 161.97)"/><path class="cls-5" d="M446.3,296.65a2.25,2.25,0,1,1-3.12.66A2.26,2.26,0,0,1,446.3,296.65Z" transform="translate(23.22 161.97)"/><path class="cls-5" d="M453.6,241.82a2.25,2.25,0,1,1-3.11.66A2.26,2.26,0,0,1,453.6,241.82Z" transform="translate(23.22 161.97)"/><path class="cls-5" d="M398.67,250.91a2.25,2.25,0,1,1-3.11.66A2.26,2.26,0,0,1,398.67,250.91Z" transform="translate(23.22 161.97)"/><path class="cls-5" d="M440.25,323.15a2.25,2.25,0,1,1-3.11.66A2.26,2.26,0,0,1,440.25,323.15Z" transform="translate(23.22 161.97)"/><path class="cls-5" d="M335.3,267.22a2.25,2.25,0,1,1-3.11.66A2.25,2.25,0,0,1,335.3,267.22Z" transform="translate(23.22 161.97)"/><path class="cls-5" d="M450.7,175.21a2.25,2.25,0,1,1-3.11.66A2.25,2.25,0,0,1,450.7,175.21Z" transform="translate(23.22 161.97)"/><path class="cls-5" d="M494.78,230.5a2.25,2.25,0,1,1-3.11.66A2.25,2.25,0,0,1,494.78,230.5Z" transform="translate(23.22 161.97)"/><path class="cls-5" d="M374.17,122.65a2.25,2.25,0,1,1-3.11.65A2.24,2.24,0,0,1,374.17,122.65Z" transform="translate(23.22 161.97)"/><path class="cls-5" d="M414.32,99.49a2.25,2.25,0,1,1-3.11.66A2.25,2.25,0,0,1,414.32,99.49Z" transform="translate(23.22 161.97)"/><path class="cls-5" d="M311.87,108.6a2.25,2.25,0,1,1-3.11.66A2.25,2.25,0,0,1,311.87,108.6Z" transform="translate(23.22 161.97)"/><path class="cls-5" d="M392.29,179.78a2.25,2.25,0,1,1-3.11.66A2.24,2.24,0,0,1,392.29,179.78Z" transform="translate(23.22 161.97)"/><path class="cls-5" d="M256.83,167.79a2.25,2.25,0,1,1-3.12.66A2.26,2.26,0,0,1,256.83,167.79Z" transform="translate(23.22 161.97)"/><path class="cls-5" d="M221.24,207.46a2.25,2.25,0,1,1-3.11.65A2.25,2.25,0,0,1,221.24,207.46Z" transform="translate(23.22 161.97)"/><path class="cls-5" d="M273.4,238.77a2.25,2.25,0,1,1-3.11.66A2.26,2.26,0,0,1,273.4,238.77Z" transform="translate(23.22 161.97)"/><path class="cls-5" d="M313,269.92a2.25,2.25,0,1,1-3.12.66A2.26,2.26,0,0,1,313,269.92Z" transform="translate(23.22 161.97)"/><path class="cls-5" d="M350.1,303a2.25,2.25,0,1,1-3.12.66A2.26,2.26,0,0,1,350.1,303Z" transform="translate(23.22 161.97)"/><circle class="cls-5" cx="370.72" cy="271.41" r="2.25" transform="translate(-35.93 595.58) rotate(-56.88)"/><path class="cls-5" d="M416.67,306.72a2.25,2.25,0,1,1-3.11.66A2.25,2.25,0,0,1,416.67,306.72Z" transform="translate(23.22 161.97)"/><circle class="cls-5" cx="411.59" cy="331.53" r="2.25" transform="matrix(0.55, -0.84, 0.84, 0.55, -67.77, 657)"/><ellipse class="cls-5" cx="429.21" cy="357.3" rx="2.24" ry="2.25" transform="translate(-81.35 683.47) rotate(-56.87)"/></g><g class="cls-7"><polygon class="cls-3" points="320.59 460.92 305.92 512.03 305.74 511.99 320.42 460.86 320.59 460.92"/><polygon class="cls-3" points="410.9 494.27 410.93 494.44 305.85 512.1 305.82 511.92 410.9 494.27"/><polygon class="cls-3" points="410.95 494.27 410.89 494.44 320.48 460.97 320.54 460.8 410.95 494.27"/><polygon class="cls-3" points="410.99 494.41 366.43 544.77 366.29 544.66 410.85 494.29 410.99 494.41"/><g class="cls-4"><polygon class="cls-5" points="491.41 504.74 491.39 504.92 410.91 494.45 410.93 494.27 491.41 504.74"/></g><polygon class="cls-3" points="466.51 546.94 466.39 547.08 410.86 494.42 410.98 494.29 466.51 546.94"/><path class="cls-6" d="M468.18,342.85" transform="translate(23.22 161.97)"/><polygon class="cls-3" points="491.48 504.87 466.52 547.06 466.36 546.96 491.32 504.79 491.48 504.87"/><polygon class="cls-3" points="491.49 504.81 504.24 598.08 504.05 598.1 491.31 504.84 491.49 504.81"/><polygon class="cls-3" points="504.22 598.04 504.07 598.14 466.37 547.06 466.51 546.96 504.22 598.04"/><polygon class="cls-3" points="466.52 547.07 428.43 598.38 428.29 598.27 466.37 546.96 466.52 547.07"/><polygon class="cls-3" points="466.48 547.09 390.4 586.87 390.31 586.71 466.4 546.93 466.48 547.09"/><polygon class="cls-3" points="466.45 546.92 466.44 547.1 366.36 544.81 366.36 544.63 466.45 546.92"/><polygon class="cls-3" points="411.01 494.37 390.45 586.81 390.27 586.77 410.83 494.33 411.01 494.37"/><polygon class="cls-3" points="411.01 494.33 428.45 598.31 428.27 598.34 410.83 494.37 411.01 494.33"/><polygon class="cls-3" points="428.38 598.24 428.33 598.41 389.51 587.04 389.56 586.87 428.38 598.24"/><polygon class="cls-3" points="305.88 512.09 243.26 550.18 243.17 550.03 305.78 511.94 305.88 512.09"/><rect class="cls-3" x="297.47" y="347.49" width="0.18" height="90.41" transform="translate(-89.99 282.61) rotate(-19.33)"/><polygon class="cls-3" points="366.4 544.64 366.32 544.79 305.79 512.09 305.87 511.93 366.4 544.64"/><polygon class="cls-3" points="366.44 544.76 335.81 597.38 335.65 597.29 366.29 544.67 366.44 544.76"/><polygon class="cls-3" points="390.43 586.75 390.28 586.84 366.29 544.76 366.44 544.68 390.43 586.75"/><polygon class="cls-3" points="366.44 544.71 372.71 628.73 372.53 628.74 366.27 544.72 366.44 544.71"/><polygon class="cls-3" points="390.44 586.83 372.7 628.77 372.54 628.7 390.28 586.76 390.44 586.83"/><polygon class="cls-3" points="390.34 586.7 390.37 586.88 335.75 597.43 335.71 597.25 390.34 586.7"/><path class="cls-6" d="M367.14,424.81" transform="translate(23.22 161.97)"/><polygon class="cls-3" points="335.72 597.24 335.74 597.43 290.05 603.62 290.02 603.44 335.72 597.24"/><polygon class="cls-3" points="335.78 597.25 335.69 597.42 243.18 550.18 243.26 550.03 335.78 597.25"/><polygon class="cls-3" points="290.11 603.47 289.98 603.59 243.15 550.17 243.28 550.04 290.11 603.47"/><polygon class="cls-3" points="344.5 628.83 344.42 629 290 603.62 290.07 603.45 344.5 628.83"/><polygon class="cls-3" points="290.1 603.6 245.06 642.92 244.94 642.78 289.98 603.46 290.1 603.6"/><polygon class="cls-3" points="344.54 628.89 344.37 628.94 335.65 597.36 335.82 597.31 344.54 628.89"/><polygon class="cls-3" points="372.63 628.64 372.63 628.83 344.46 629.01 344.46 628.82 372.63 628.64"/><polygon class="cls-3" points="389.15 662.28 388.98 662.36 372.54 628.77 372.7 628.7 389.15 662.28"/><polygon class="cls-3" points="372.66 628.82 323.25 653.98 323.17 653.83 372.58 628.65 372.66 628.82"/><polygon class="cls-3" points="344.49 629 271.27 653.64 271.22 653.47 344.43 628.83 344.49 629"/><polygon class="cls-3" points="344.53 628.97 323.27 653.96 323.14 653.84 344.39 628.86 344.53 628.97"/><rect class="cls-3" x="211.25" y="504.38" width="122.79" height="0.18" transform="translate(-228.28 433.86) rotate(-37.68)"/><polygon class="cls-3" points="271.28 653.48 271.21 653.64 244.97 642.94 245.04 642.78 271.28 653.48"/><polygon class="cls-3" points="271.32 653.6 247.36 704.01 247.2 703.94 271.17 653.52 271.32 653.6"/><polygon class="cls-3" points="314.31 660.79 314.28 660.97 271.23 653.64 271.26 653.47 314.31 660.79"/><polygon class="cls-3" points="323.27 653.97 314.35 660.95 314.24 660.81 323.15 653.83 323.27 653.97"/><rect class="cls-3" x="291.49" y="498.89" width="0.18" height="27.36" transform="translate(4.61 173.02) rotate(-2.1)"/><polygon class="cls-3" points="314.35 660.96 247.32 704.05 247.23 703.9 314.25 660.8 314.35 660.96"/><polygon class="cls-3" points="372.77 682.28 372.79 682.46 315.3 688.3 315.29 688.13 372.77 682.28"/><polygon class="cls-3" points="315.32 688.3 247.29 704.06 247.26 703.89 315.28 688.13 315.32 688.3"/><rect class="cls-3" x="289.87" y="513.21" width="78.18" height="0.18" transform="translate(-128.23 299.91) rotate(-19.34)"/><polygon class="cls-3" points="389.13 662.38 372.86 682.43 372.72 682.32 388.99 662.26 389.13 662.38"/><polygon class="cls-3" points="429.85 680 429.86 680.18 372.79 682.47 372.78 682.28 429.85 680"/><polygon class="cls-3" points="502.85 652.11 372.8 682.46 372.76 682.29 502.81 651.93 502.85 652.11"/><polygon class="cls-3" points="537.91 659.14 537.94 659.32 429.87 680.17 429.83 680 537.91 659.14"/><polygon class="cls-3" points="456.71 642.37 429.93 680.14 429.78 680.04 456.56 642.27 456.71 642.37"/><polygon class="cls-3" points="520.33 624.85 429.9 680.17 429.81 680.01 520.24 624.7 520.33 624.85"/><polygon class="cls-3" points="537.94 659.14 537.91 659.32 502.81 652.11 502.85 651.93 537.94 659.14"/><polygon class="cls-3" points="520.37 624.82 502.91 652.07 502.75 651.97 520.21 624.73 520.37 624.82"/><polygon class="cls-3" points="502.85 651.93 502.81 652.11 456.62 642.4 456.65 642.23 502.85 651.93"/><polygon class="cls-3" points="487.76 630.11 456.66 642.4 456.6 642.24 487.69 629.95 487.76 630.11"/><polygon class="cls-3" points="456.65 642.23 456.62 642.4 421.13 635.09 421.17 634.91 456.65 642.23"/><polygon class="cls-3" points="466.53 547.02 456.72 642.33 456.54 642.3 466.36 547 466.53 547.02"/><polygon class="cls-3" points="520.17 623.74 520.01 623.83 504.06 598.14 504.22 598.05 520.17 623.74"/><polygon class="cls-3" points="504.23 598.13 487.8 630.07 487.65 629.99 504.06 598.05 504.23 598.13"/><rect class="cls-3" x="394.01" y="454.48" width="90.83" height="0.18" transform="translate(-123.57 379.72) rotate(-23.97)"/><polygon class="cls-3" points="502.9 651.97 502.76 652.07 487.65 630.08 487.8 629.97 502.9 651.97"/><polygon class="cls-3" points="539.03 658.94 538.94 659.1 487.68 630.11 487.77 629.95 539.03 658.94"/><polygon class="cls-3" points="487.81 630.01 487.64 630.05 466.36 547.04 466.53 546.99 487.81 630.01"/><polygon class="cls-3" points="421.24 634.98 429.95 680.07 429.77 680.11 421.06 635.02 421.24 634.98"/><polygon class="cls-3" points="423.74 634.58 389.12 662.39 389 662.25 423.63 634.44 423.74 634.58"/><rect class="cls-3" x="382.85" y="454.59" width="37.38" height="0.18" transform="translate(-98.83 922.97) rotate(-78.88)"/><path class="cls-5" d="M247.53,489a2.58,2.58,0,1,1-2,3A2.58,2.58,0,0,1,247.53,489Z" transform="translate(23.22 161.97)"/><path class="cls-5" d="M266.33,439a2.58,2.58,0,1,1-2,3A2.58,2.58,0,0,1,266.33,439Z" transform="translate(23.22 161.97)"/><path class="cls-5" d="M290.59,496.37a2.58,2.58,0,1,1-2,3A2.58,2.58,0,0,1,290.59,496.37Z" transform="translate(23.22 161.97)"/><path class="cls-5" d="M299.5,489.4a2.58,2.58,0,1,1-2.05,3A2.57,2.57,0,0,1,299.5,489.4Z" transform="translate(23.22 161.97)"/><path class="cls-5" d="M348.91,464.22a2.58,2.58,0,1,1-2,3A2.58,2.58,0,0,1,348.91,464.22Z" transform="translate(23.22 161.97)"/><path class="cls-5" d="M312,432.82a2.58,2.58,0,1,1-2,3A2.58,2.58,0,0,1,312,432.82Z" transform="translate(23.22 161.97)"/><path class="cls-5" d="M366.65,422.28a2.58,2.58,0,1,1-2,3A2.58,2.58,0,0,1,366.65,422.28Z" transform="translate(23.22 161.97)"/><path class="cls-5" d="M320.75,464.41a2.58,2.58,0,1,1-2,3A2.59,2.59,0,0,1,320.75,464.41Z" transform="translate(23.22 161.97)"/><path class="cls-5" d="M432.92,477.81a2.58,2.58,0,1,1-2,3A2.58,2.58,0,0,1,432.92,477.81Z" transform="translate(23.22 161.97)"/><path class="cls-5" d="M480.44,433.58a2.58,2.58,0,1,1-2,3A2.59,2.59,0,0,1,480.44,433.58Z" transform="translate(23.22 161.97)"/><path class="cls-5" d="M442.73,382.5a2.58,2.58,0,1,1-2,3A2.59,2.59,0,0,1,442.73,382.5Z" transform="translate(23.22 161.97)"/><path class="cls-5" d="M404.65,433.81a2.58,2.58,0,1,1-2,3A2.59,2.59,0,0,1,404.65,433.81Z" transform="translate(23.22 161.97)"/><path class="cls-5" d="M496.57,460.27a2.58,2.58,0,1,1-2,3A2.59,2.59,0,0,1,496.57,460.27Z" transform="translate(23.22 161.97)"/><path class="cls-5" d="M365.35,497.81a2.58,2.58,0,1,1-2,3A2.58,2.58,0,0,1,365.35,497.81Z" transform="translate(23.22 161.97)"/><path class="cls-5" d="M387.21,329.84a2.58,2.58,0,1,1-2,3A2.59,2.59,0,0,1,387.21,329.84Z" transform="translate(23.22 161.97)"/><path class="cls-5" d="M467.69,340.32a2.58,2.58,0,1,1-2,3A2.58,2.58,0,0,1,467.69,340.32Z" transform="translate(23.22 161.97)"/><path class="cls-5" d="M282.13,347.5a2.58,2.58,0,1,1-2.05,3A2.57,2.57,0,0,1,282.13,347.5Z" transform="translate(23.22 161.97)"/><path class="cls-5" d="M296.8,296.38a2.58,2.58,0,1,1-2,3A2.58,2.58,0,0,1,296.8,296.38Z" transform="translate(23.22 161.97)"/><path class="cls-5" d="M219.51,385.6a2.58,2.58,0,1,1-2,3A2.58,2.58,0,0,1,219.51,385.6Z" transform="translate(23.22 161.97)"/><path class="cls-5" d="M342.65,380.21a2.58,2.58,0,1,1-2,3A2.57,2.57,0,0,1,342.65,380.21Z" transform="translate(23.22 161.97)"/><path class="cls-5" d="M221.29,478.34a2.58,2.58,0,1,1-2,3A2.6,2.6,0,0,1,221.29,478.34Z" transform="translate(23.22 161.97)"/><path class="cls-5" d="M223.57,539.47a2.58,2.58,0,1,1-2.05,3A2.58,2.58,0,0,1,223.57,539.47Z" transform="translate(23.22 161.97)"/><path class="cls-5" d="M291.59,523.71a2.58,2.58,0,1,1-2,3A2.59,2.59,0,0,1,291.59,523.71Z" transform="translate(23.22 161.97)"/><path class="cls-5" d="M349.08,517.86a2.58,2.58,0,1,1-2,3A2.59,2.59,0,0,1,349.08,517.86Z" transform="translate(23.22 161.97)"/><path class="cls-5" d="M406.15,515.58a2.58,2.58,0,1,1-2,3A2.59,2.59,0,0,1,406.15,515.58Z" transform="translate(23.22 161.97)"/><circle class="cls-5" cx="397.93" cy="473.02" r="2.58" transform="translate(-59.06 245.77) rotate(-10.9)"/><path class="cls-5" d="M464,465.52a2.58,2.58,0,1,1-2,3A2.58,2.58,0,0,1,464,465.52Z" transform="translate(23.22 161.97)"/><path class="cls-5" d="M479.12,487.51a2.58,2.58,0,1,1-2,3A2.58,2.58,0,0,1,479.12,487.51Z" transform="translate(23.22 161.97)"/><ellipse class="cls-5" cx="514.7" cy="497.25" rx="2.58" ry="2.58" transform="matrix(0.98, -0.19, 0.19, 0.98, -61.5, 268.24)"/></g><g class="cls-7"><polygon class="cls-3" points="50.28 640.29 96.25 634.46 96.27 634.62 50.3 640.45 50.28 640.29"/><polygon class="cls-3" points="45.93 556.52 46.06 556.44 96.33 634.5 96.19 634.58 45.93 556.52"/><polygon class="cls-3" points="45.92 556.48 46.07 556.47 50.36 640.36 50.21 640.37 45.92 556.48"/><polygon class="cls-3" points="46.02 556.4 101.66 574.76 101.61 574.91 45.97 556.55 46.02 556.4"/><g class="cls-4"><polygon class="cls-5" points="26.64 488.46 26.79 488.42 46.07 556.45 45.92 556.49 26.64 488.46"/></g><polygon class="cls-3" points="68.98 493.89 69.14 493.94 46.07 556.5 45.92 556.45 68.98 493.89"/><path class="cls-6" d="M3.49,326.46" transform="translate(23.22 161.97)"/><polygon class="cls-3" points="26.72 488.36 69.07 493.84 69.05 494 26.7 488.52 26.72 488.36"/><polygon class="cls-3" points="26.67 488.38 96.95 446.1 97.03 446.24 26.75 488.51 26.67 488.38"/><polygon class="cls-3" points="96.93 446.13 97.06 446.21 69.13 493.95 69 493.88 96.93 446.13"/><polygon class="cls-3" points="69.08 493.84 123.26 506.69 123.22 506.84 69.05 493.99 69.08 493.84"/><polygon class="cls-3" points="69.11 493.86 127.12 541.09 127.02 541.22 69.01 493.98 69.11 493.86"/><polygon class="cls-3" points="68.99 493.94 69.14 493.89 101.71 574.8 101.56 574.87 68.99 493.94"/><polygon class="cls-3" points="45.98 556.4 127.06 541.08 127.08 541.23 46.01 556.55 45.98 556.4"/><polygon class="cls-3" points="45.95 556.41 123.19 506.7 123.28 506.83 46.04 556.54 45.95 556.41"/><polygon class="cls-3" points="123.16 506.78 123.31 506.76 127.56 541.75 127.41 541.77 123.16 506.78"/><polygon class="cls-3" points="96.31 634.48 148.34 671.51 148.24 671.64 96.22 634.61 96.31 634.48"/><rect class="cls-3" x="62.67" y="445.85" width="78.78" height="0.15" transform="matrix(0.74, -0.68, 0.68, 0.74, -251.55, 348.55)"/><polygon class="cls-3" points="101.56 574.83 101.71 574.84 96.34 634.54 96.18 634.54 101.56 574.83"/><polygon class="cls-3" points="101.65 574.76 154.3 581.19 154.29 581.34 101.62 574.91 101.65 574.76"/><polygon class="cls-3" points="127.01 541.11 127.14 541.2 101.7 574.88 101.58 574.79 127.01 541.11"/><polygon class="cls-3" points="101.6 574.77 166.71 540.87 166.78 541 101.67 574.9 101.6 574.77"/><polygon class="cls-3" points="127.08 541.08 166.75 540.86 166.75 541.02 127.07 541.23 127.08 541.08"/><polygon class="cls-3" points="127.01 541.2 127.14 541.12 154.36 581.22 154.23 581.31 127.01 541.2"/><path class="cls-6" d="M103.85,379.18" transform="translate(23.22 161.97)"/><polygon class="cls-3" points="154.22 581.3 154.36 581.22 175.03 615.68 174.9 615.76 154.22 581.3"/><polygon class="cls-3" points="154.21 581.26 154.37 581.27 148.37 671.58 148.21 671.57 154.21 581.26"/><polygon class="cls-3" points="174.89 615.68 175.03 615.75 148.36 671.61 148.22 671.54 174.89 615.68"/><polygon class="cls-3" points="176.5 563.42 176.66 563.42 175.05 615.72 174.88 615.72 176.5 563.42"/><polygon class="cls-3" points="175 615.65 221.97 638.19 221.9 638.33 174.93 615.79 175 615.65"/><polygon class="cls-3" points="176.53 563.36 176.63 563.48 154.34 581.33 154.25 581.2 176.53 563.36"/><polygon class="cls-3" points="166.68 540.96 166.82 540.9 176.65 563.39 176.51 563.45 166.68 540.96"/><polygon class="cls-3" points="187.93 516.17 188.05 516.27 166.81 540.99 166.69 540.88 187.93 516.17"/><polygon class="cls-3" points="166.8 540.87 203.94 571.79 203.84 571.9 166.7 541 166.8 540.87"/><polygon class="cls-3" points="176.63 563.37 221.54 613.52 221.42 613.62 176.52 563.48 176.63 563.37"/><polygon class="cls-3" points="176.6 563.35 203.92 571.77 203.86 571.92 176.56 563.5 176.6 563.35"/><rect class="cls-3" x="200.04" y="373.95" width="0.15" height="106.99" transform="translate(-247.49 556.57) rotate(-60.92)"/><polygon class="cls-3" points="221.41 613.57 221.56 613.56 222.01 638.25 221.86 638.25 221.41 613.57"/><polygon class="cls-3" points="221.48 613.49 270.09 615.34 270.08 615.5 221.47 613.64 221.48 613.49"/><polygon class="cls-3" points="212.46 576.6 212.62 576.57 221.55 613.55 221.4 613.58 212.46 576.6"/><polygon class="cls-3" points="203.93 571.77 212.58 576.51 212.5 576.65 203.85 571.91 203.93 571.77"/><rect class="cls-3" x="188.17" y="409.42" width="23.84" height="0.16" transform="translate(-132.81 287.03) rotate(-25.34)"/><polygon class="cls-3" points="212.58 576.51 270.13 615.36 270.04 615.49 212.49 576.64 212.58 576.51"/><polygon class="cls-3" points="209.57 522.4 209.71 522.32 234.15 566.34 234.01 566.42 209.57 522.4"/><polygon class="cls-3" points="234.14 566.33 270.15 615.38 270.02 615.46 234.02 566.42 234.14 566.33"/><rect class="cls-3" x="187.74" y="345.27" width="0.15" height="68.12" transform="translate(-183.93 389.09) rotate(-42.58)"/><polygon class="cls-3" points="188.01 516.15 209.66 522.28 209.62 522.43 187.97 516.3 188.01 516.15"/><polygon class="cls-3" points="188.12 477.49 188.26 477.42 209.71 522.33 209.57 522.4 188.12 477.49"/><polygon class="cls-3" points="140.69 428.63 209.7 522.32 209.58 522.41 140.56 428.72 140.69 428.63"/><polygon class="cls-3" points="134.26 398.15 134.4 398.06 188.25 477.41 188.13 477.5 134.26 398.15"/><polygon class="cls-3" points="148.76 468.92 188.21 477.38 188.17 477.53 148.73 469.08 148.76 468.92"/><polygon class="cls-3" points="112.86 424.01 188.24 477.39 188.14 477.52 112.76 424.14 112.86 424.01"/><polygon class="cls-3" points="134.26 398.12 134.41 398.09 140.7 428.67 140.54 428.69 134.26 398.12"/><polygon class="cls-3" points="112.82 423.99 140.63 428.6 140.61 428.76 112.8 424.15 112.82 423.99"/><polygon class="cls-3" points="140.54 428.69 140.7 428.67 148.82 468.99 148.66 469.02 140.54 428.69"/><polygon class="cls-3" points="128.26 448.28 148.8 468.95 148.69 469.06 128.16 448.39 128.26 448.28"/><polygon class="cls-3" points="148.66 469.02 148.82 468.99 155.16 499.91 155 499.94 148.66 469.02"/><polygon class="cls-3" points="69.04 493.85 148.72 468.93 148.76 469.08 69.08 493.99 69.04 493.85"/><polygon class="cls-3" points="112.02 424.52 112.15 424.61 97.06 446.22 96.94 446.12 112.02 424.52"/><polygon class="cls-3" points="97 446.09 128.22 448.26 128.21 448.41 96.99 446.25 97 446.09"/><rect class="cls-3" x="102.74" y="271.5" width="0.16" height="79.14" transform="translate(-172.09 337.2) rotate(-47.21)"/><polygon class="cls-3" points="140.56 428.64 140.69 428.72 128.28 448.38 128.14 448.3 140.56 428.64"/><polygon class="cls-3" points="133.72 397.32 133.88 397.34 128.29 448.34 128.13 448.33 133.72 397.32"/><polygon class="cls-3" points="128.17 448.27 128.25 448.4 69.11 493.98 69.02 493.85 128.17 448.27"/><polygon class="cls-3" points="155.03 499.86 188.14 477.39 188.23 477.52 155.13 499.99 155.03 499.86"/><polygon class="cls-3" points="153.85 498 188.02 516.16 187.95 516.29 153.78 498.13 153.85 498"/><rect class="cls-3" x="99.65" y="341.29" width="32.57" height="0.16" transform="translate(-45.88 193.93) rotate(-12.12)"/><path class="cls-5" d="M196.4,452.86a2.25,2.25,0,1,1,3.12.59A2.25,2.25,0,0,1,196.4,452.86Z" transform="translate(23.22 161.97)"/><path class="cls-5" d="M149.88,455a2.25,2.25,0,1,1,3.12.59A2.25,2.25,0,0,1,149.88,455Z" transform="translate(23.22 161.97)"/><path class="cls-5" d="M187.45,415.86a2.25,2.25,0,1,1,3.13.6A2.25,2.25,0,0,1,187.45,415.86Z" transform="translate(23.22 161.97)"/><path class="cls-5" d="M178.81,411.13a2.24,2.24,0,1,1,3.12.6A2.24,2.24,0,0,1,178.81,411.13Z" transform="translate(23.22 161.97)"/><path class="cls-5" d="M141.66,380.22a2.25,2.25,0,1,1,3.13.6A2.25,2.25,0,0,1,141.66,380.22Z" transform="translate(23.22 161.97)"/><path class="cls-5" d="M129.21,420.56a2.25,2.25,0,1,1,3.12.59A2.25,2.25,0,0,1,129.21,420.56Z" transform="translate(23.22 161.97)"/><path class="cls-5" d="M102,380.44a2.25,2.25,0,1,1,3.12.59A2.25,2.25,0,0,1,102,380.44Z" transform="translate(23.22 161.97)"/><path class="cls-5" d="M151.5,402.71a2.25,2.25,0,1,1,3.13.6A2.25,2.25,0,0,1,151.5,402.71Z" transform="translate(23.22 161.97)"/><path class="cls-5" d="M123.66,308.29a2.25,2.25,0,1,1,3.12.59A2.25,2.25,0,0,1,123.66,308.29Z" transform="translate(23.22 161.97)"/><path class="cls-5" d="M71.91,285.46a2.25,2.25,0,1,1,3.13.6A2.26,2.26,0,0,1,71.91,285.46Z" transform="translate(23.22 161.97)"/><path class="cls-5" d="M44,333.21a2.25,2.25,0,1,1,3.12.59A2.26,2.26,0,0,1,44,333.21Z" transform="translate(23.22 161.97)"/><path class="cls-5" d="M98.15,346.06a2.25,2.25,0,1,1,3.12.59A2.26,2.26,0,0,1,98.15,346.06Z" transform="translate(23.22 161.97)"/><path class="cls-5" d="M87.73,263.36a2.25,2.25,0,1,1,3.12.59A2.26,2.26,0,0,1,87.73,263.36Z" transform="translate(23.22 161.97)"/><path class="cls-5" d="M162.91,355.51a2.25,2.25,0,1,1,3.12.59A2.25,2.25,0,0,1,162.91,355.51Z" transform="translate(23.22 161.97)"/><path class="cls-5" d="M20.91,395.76a2.25,2.25,0,1,1,3.12.59A2.25,2.25,0,0,1,20.91,395.76Z" transform="translate(23.22 161.97)"/><path class="cls-5" d="M1.63,327.73a2.25,2.25,0,1,1,3.12.59A2.25,2.25,0,0,1,1.63,327.73Z" transform="translate(23.22 161.97)"/><path class="cls-5" d="M71.18,473.82a2.25,2.25,0,1,1,3.12.6A2.24,2.24,0,0,1,71.18,473.82Z" transform="translate(23.22 161.97)"/><path class="cls-5" d="M25.2,479.66a2.25,2.25,0,1,1,3.12.59A2.25,2.25,0,0,1,25.2,479.66Z" transform="translate(23.22 161.97)"/><path class="cls-5" d="M123.21,510.86a2.25,2.25,0,1,1,3.12.59A2.25,2.25,0,0,1,123.21,510.86Z" transform="translate(23.22 161.97)"/><path class="cls-5" d="M76.56,414.12a2.25,2.25,0,1,1,3.12.59A2.24,2.24,0,0,1,76.56,414.12Z" transform="translate(23.22 161.97)"/><path class="cls-5" d="M196.85,477.54a2.25,2.25,0,1,1,3.13.6A2.26,2.26,0,0,1,196.85,477.54Z" transform="translate(23.22 161.97)"/><path class="cls-5" d="M245,454.7a2.25,2.25,0,1,1,3.12.6A2.25,2.25,0,0,1,245,454.7Z" transform="translate(23.22 161.97)"/><path class="cls-5" d="M209,405.67a2.25,2.25,0,1,1,3.12.59A2.26,2.26,0,0,1,209,405.67Z" transform="translate(23.22 161.97)"/><path class="cls-5" d="M184.56,361.65a2.25,2.25,0,1,1,3.13.6A2.26,2.26,0,0,1,184.56,361.65Z" transform="translate(23.22 161.97)"/><path class="cls-5" d="M163.11,316.74a2.25,2.25,0,1,1,3.13.6A2.26,2.26,0,0,1,163.11,316.74Z" transform="translate(23.22 161.97)"/><circle class="cls-5" cx="131.86" cy="337.95" r="2.25" transform="translate(-143.73 294.23) rotate(-34.14)"/><path class="cls-5" d="M103.13,287.62a2.25,2.25,0,1,1,3.12.59A2.25,2.25,0,0,1,103.13,287.62Z" transform="translate(23.22 161.97)"/><circle class="cls-5" cx="117.4" cy="266.71" r="2.25" transform="translate(-106.21 273.8) rotate(-34.13)"/><ellipse class="cls-5" cx="111.11" cy="236.13" rx="2.24" ry="2.25" transform="translate(-90.15 265.01) rotate(-34.14)"/></g><g class="cls-8"><polygon class="cls-3" points="127.38 4.31 105.88 89.61 105.58 89.54 127.1 4.24 127.38 4.31"/><polygon class="cls-3" points="278.49 54.58 278.54 54.87 105.77 89.72 105.71 89.43 278.49 54.58"/><polygon class="cls-3" points="278.56 54.59 278.48 54.86 127.2 4.4 127.29 4.13 278.56 54.59"/><polygon class="cls-3" points="278.63 54.82 207.68 140.48 207.44 140.3 278.41 54.63 278.63 54.82"/><g class="cls-4"><polygon class="cls-5" points="412.15 67.56 412.12 67.86 278.51 54.88 278.54 54.58 412.15 67.56"/></g><polygon class="cls-3" points="373.25 138.67 373.06 138.9 278.42 54.84 278.61 54.61 373.25 138.67"/><path class="cls-6" d="M388.92-94.27" transform="translate(23.22 161.97)"/><polygon class="cls-3" points="412.27 67.78 373.28 138.86 373.02 138.72 412 67.64 412.27 67.78"/><polygon class="cls-3" points="412.28 67.68 438.38 221.18 438.08 221.22 411.99 67.73 412.28 67.68"/><polygon class="cls-3" points="438.35 221.12 438.11 221.29 373.04 138.88 373.26 138.7 438.35 221.12"/><polygon class="cls-3" points="373.28 138.88 313.07 225.75 312.84 225.59 373.03 138.71 373.28 138.88"/><polygon class="cls-3" points="373.22 138.92 249.58 208.78 249.43 208.53 373.08 138.66 373.22 138.92"/><polygon class="cls-3" points="373.15 138.64 373.15 138.94 207.57 140.54 207.56 140.24 373.15 138.64"/><polygon class="cls-3" points="278.67 54.75 249.66 208.68 249.36 208.62 278.37 54.7 278.67 54.75"/><polygon class="cls-3" points="278.66 54.69 313.1 225.64 312.8 225.7 278.38 54.76 278.66 54.69"/><polygon class="cls-3" points="312.99 225.53 312.92 225.81 248.11 209.11 248.19 208.82 312.99 225.53"/><polygon class="cls-3" points="105.82 89.7 4.36 156.06 4.19 155.81 105.65 89.46 105.82 89.7"/><rect class="cls-3" x="109.38" y="-77.45" width="0.29" height="149.56" transform="translate(31.6 201.4) rotate(-21.2)"/><polygon class="cls-3" points="207.63 140.26 207.5 140.52 105.67 89.71 105.79 89.44 207.63 140.26"/><polygon class="cls-3" points="207.69 140.46 159.9 229.1 159.63 228.96 207.44 140.31 207.69 140.46"/><polygon class="cls-3" points="249.63 208.59 249.38 208.74 207.44 140.47 207.69 140.32 249.63 208.59"/><polygon class="cls-3" points="207.7 140.37 222.59 278.93 222.29 278.97 207.42 140.4 207.7 140.37"/><polygon class="cls-3" points="249.64 208.72 222.58 279 222.3 278.9 249.37 208.61 249.64 208.72"/><polygon class="cls-3" points="249.47 208.51 249.53 208.8 159.8 229.18 159.73 228.88 249.47 208.51"/><path class="cls-6" d="M226.28,46.67" transform="translate(23.22 161.97)"/><polygon class="cls-3" points="159.74 228.88 159.79 229.18 84.58 241.88 84.53 241.59 159.74 228.88"/><polygon class="cls-3" points="159.84 228.89 159.71 229.17 4.21 156.06 4.33 155.8 159.84 228.89"/><polygon class="cls-3" points="84.67 241.63 84.45 241.84 4.16 156.04 4.38 155.83 84.67 241.63"/><polygon class="cls-3" points="175.95 280.62 175.84 280.91 84.49 241.88 84.61 241.59 175.95 280.62"/><polygon class="cls-3" points="84.66 241.84 12.32 309.28 12.12 309.06 84.46 241.62 84.66 241.84"/><polygon class="cls-3" points="176.03 280.72 175.75 280.82 159.63 229.07 159.91 228.99 176.03 280.72"/><polygon class="cls-3" points="222.44 278.8 222.45 279.11 175.89 280.92 175.88 280.62 222.44 278.8"/><polygon class="cls-3" points="251.57 333.52 251.31 333.66 222.31 279.01 222.57 278.88 251.57 333.52"/><polygon class="cls-3" points="222.51 279.09 142.17 323.35 142.03 323.1 222.37 278.82 222.51 279.09"/><polygon class="cls-3" points="175.94 280.9 56.23 325.59 56.13 325.31 175.84 280.63 175.94 280.9"/><polygon class="cls-3" points="176.01 280.86 142.22 323.32 141.99 323.13 175.77 280.68 176.01 280.86"/><polygon class="cls-3" points="175.99 280.88 19.36 410.21 19.18 409.99 175.79 280.66 175.99 280.88"/><polygon class="cls-3" points="56.23 325.32 56.13 325.59 12.17 309.31 12.27 309.04 56.23 325.32"/><polygon class="cls-3" points="56.31 325.51 19.41 410.16 19.14 410.04 56.05 325.39 56.31 325.51"/><polygon class="cls-3" points="127.77 335.09 127.72 335.38 56.16 325.6 56.2 325.31 127.77 335.09"/><polygon class="cls-3" points="142.21 323.34 127.85 335.36 127.66 335.12 142.01 323.11 142.21 323.34"/><rect class="cls-3" x="105.95" y="173.21" width="0.3" height="45.25" transform="translate(9.92 169.79) rotate(-3.97)"/><polygon class="cls-3" points="127.83 335.36 19.35 410.21 19.19 409.97 127.67 335.11 127.83 335.36"/><polygon class="cls-3" points="225.58 367.48 225.62 367.77 130.89 380.52 130.86 380.23 225.58 367.48"/><polygon class="cls-3" points="130.92 380.52 19.3 410.24 19.23 409.96 130.85 380.23 130.92 380.52"/><rect class="cls-3" x="103.28" y="194.86" width="129.31" height="0.29" transform="translate(-35.96 235.94) rotate(-21.21)"/><polygon class="cls-3" points="251.55 333.69 225.73 367.71 225.49 367.54 251.31 333.5 251.55 333.69"/><polygon class="cls-3" points="319.82 360.62 319.84 360.92 225.61 367.77 225.59 367.47 319.82 360.62"/><polygon class="cls-3" points="439 310.57 225.64 367.76 225.57 367.48 438.93 310.29 439 310.57"/><polygon class="cls-3" points="497.34 320.31 497.4 320.61 319.86 360.91 319.79 360.63 497.34 320.31"/><polygon class="cls-3" points="362.2 296.97 319.95 360.86 319.7 360.69 361.94 296.81 362.2 296.97"/><polygon class="cls-3" points="466.44 264.58 319.91 360.9 319.76 360.64 466.27 264.32 466.44 264.58"/><polygon class="cls-3" points="497.4 320.32 497.35 320.61 438.94 310.58 439 310.29 497.4 320.32"/><polygon class="cls-3" points="466.49 264.52 439.1 310.51 438.83 310.36 466.23 264.37 466.49 264.52"/><polygon class="cls-3" points="439 310.29 438.94 310.58 362.04 297.03 362.09 296.74 439 310.29"/><polygon class="cls-3" points="412.87 275.02 362.12 297.02 362 296.75 412.75 274.76 412.87 275.02"/><polygon class="cls-3" points="362.09 296.74 362.04 297.03 302.99 286.84 303.04 286.55 362.09 296.74"/><polygon class="cls-3" points="373.29 138.79 362.22 296.9 361.92 296.87 373.01 138.77 373.29 138.79"/><polygon class="cls-3" points="466.11 262.74 465.86 262.91 438.1 221.28 438.36 221.13 466.11 262.74"/><polygon class="cls-3" points="438.37 221.27 412.94 274.95 412.68 274.83 438.1 221.14 438.37 221.27"/><polygon class="cls-3" points="438.3 221.34 303.08 286.83 302.95 286.56 438.17 221.07 438.3 221.34"/><polygon class="cls-3" points="439.08 310.35 438.86 310.52 412.69 274.99 412.92 274.8 439.08 310.35"/><polygon class="cls-3" points="499.19 319.93 499.04 320.19 412.74 275.02 412.87 274.76 499.19 319.93"/><polygon class="cls-3" points="412.95 274.86 412.67 274.93 373.01 138.84 373.29 138.75 412.95 274.86"/><polygon class="cls-3" points="303.16 286.66 319.98 360.73 319.69 360.81 302.87 286.73 303.16 286.66"/><polygon class="cls-3" points="307.27 285.86 251.53 333.7 251.33 333.48 307.08 285.64 307.27 285.86"/><polygon class="cls-3" points="313.1 225.69 303.16 286.71 302.86 286.67 312.81 225.65 313.1 225.69"/><path class="cls-5" d="M32,159.31a4.27,4.27,0,1,1-3.21,5.11A4.27,4.27,0,0,1,32,159.31Z" transform="translate(23.22 161.97)"/><path class="cls-5" d="M60.39,75.59a4.27,4.27,0,1,1-3.21,5.11A4.27,4.27,0,0,1,60.39,75.59Z" transform="translate(23.22 161.97)"/><path class="cls-5" d="M103.59,169.09a4.27,4.27,0,1,1-3.22,5.11A4.27,4.27,0,0,1,103.59,169.09Z" transform="translate(23.22 161.97)"/><path class="cls-5" d="M117.95,157.09a4.26,4.26,0,1,1-3.23,5.1A4.26,4.26,0,0,1,117.95,157.09Z" transform="translate(23.22 161.97)"/><path class="cls-5" d="M198.28,112.8a4.27,4.27,0,1,1-3.22,5.11A4.27,4.27,0,0,1,198.28,112.8Z" transform="translate(23.22 161.97)"/><path class="cls-5" d="M135.59,62.89A4.27,4.27,0,1,1,132.38,68,4.27,4.27,0,0,1,135.59,62.89Z" transform="translate(23.22 161.97)"/><path class="cls-5" d="M225.34,42.52a4.27,4.27,0,1,1-3.21,5.11A4.27,4.27,0,0,1,225.34,42.52Z" transform="translate(23.22 161.97)"/><path class="cls-5" d="M151.73,114.63a4.27,4.27,0,1,1-3.22,5.11A4.28,4.28,0,0,1,151.73,114.63Z" transform="translate(23.22 161.97)"/><path class="cls-5" d="M337.9,130.74a4.27,4.27,0,1,1-3.21,5.11A4.27,4.27,0,0,1,337.9,130.74Z" transform="translate(23.22 161.97)"/><path class="cls-5" d="M414.07,55.06a4.27,4.27,0,1,1-3.22,5.11A4.28,4.28,0,0,1,414.07,55.06Z" transform="translate(23.22 161.97)"/><path class="cls-5" d="M349-27.35a4.28,4.28,0,0,1,5.11,3.21A4.27,4.27,0,0,1,350.87-19a4.28,4.28,0,0,1-5.1-3.21A4.26,4.26,0,0,1,349-27.35Z" transform="translate(23.22 161.97)"/><path class="cls-5" d="M288.79,59.53a4.27,4.27,0,1,1-3.21,5.11A4.29,4.29,0,0,1,288.79,59.53Z" transform="translate(23.22 161.97)"/><path class="cls-5" d="M442.18,98.31a4.27,4.27,0,1,1-3.21,5.11A4.28,4.28,0,0,1,442.18,98.31Z" transform="translate(23.22 161.97)"/><path class="cls-5" d="M227.27,167.46a4.27,4.27,0,1,1-3.21,5.11A4.26,4.26,0,0,1,227.27,167.46Z" transform="translate(23.22 161.97)"/><path class="cls-5" d="M254.35-111.41a4.28,4.28,0,0,1,5.11,3.22,4.26,4.26,0,0,1-3.21,5.1,4.26,4.26,0,0,1-5.11-3.21A4.27,4.27,0,0,1,254.35-111.41Z" transform="translate(23.22 161.97)"/><path class="cls-5" d="M388-98.43a4.27,4.27,0,0,1,5.11,3.21,4.26,4.26,0,0,1-3.21,5.11,4.26,4.26,0,0,1-5.11-3.21A4.27,4.27,0,0,1,388-98.43Z" transform="translate(23.22 161.97)"/><path class="cls-5" d="M81.58-76.56a4.25,4.25,0,0,1,5.1,3.21,4.27,4.27,0,0,1-3.21,5.11,4.28,4.28,0,0,1-5.11-3.22A4.26,4.26,0,0,1,81.58-76.56Z" transform="translate(23.22 161.97)"/><path class="cls-5" d="M103.07-161.87a4.27,4.27,0,0,1,5.11,3.22,4.26,4.26,0,0,1-3.21,5.1,4.26,4.26,0,0,1-5.11-3.21A4.26,4.26,0,0,1,103.07-161.87Z" transform="translate(23.22 161.97)"/><path class="cls-5" d="M-19.9-10.2A4.27,4.27,0,0,1-14.79-7,4.27,4.27,0,0,1-18-1.88a4.26,4.26,0,0,1-5.11-3.21A4.25,4.25,0,0,1-19.9-10.2Z" transform="translate(23.22 161.97)"/><path class="cls-5" d="M183.4-25.75a4.25,4.25,0,0,1,5.1,3.21,4.25,4.25,0,0,1-3.21,5.11,4.26,4.26,0,0,1-5.1-3.21A4.27,4.27,0,0,1,183.4-25.75Z" transform="translate(23.22 161.97)"/><path class="cls-5" d="M-11.95,143a4.29,4.29,0,0,1,5.11,3.22,4.29,4.29,0,0,1-3.22,5.11,4.29,4.29,0,0,1-5.11-3.22A4.28,4.28,0,0,1-11.95,143Z" transform="translate(23.22 161.97)"/><path class="cls-5" d="M-4.89,244a4.27,4.27,0,0,1,5.1,3.21A4.28,4.28,0,0,1-3,252.28a4.27,4.27,0,0,1-5.11-3.22A4.26,4.26,0,0,1-4.89,244Z" transform="translate(23.22 161.97)"/><path class="cls-5" d="M106.71,214.24a4.27,4.27,0,1,1-3.21,5.11A4.29,4.29,0,0,1,106.71,214.24Z" transform="translate(23.22 161.97)"/><path class="cls-5" d="M201.44,201.48a4.27,4.27,0,1,1-3.22,5.11A4.29,4.29,0,0,1,201.44,201.48Z" transform="translate(23.22 161.97)"/><path class="cls-5" d="M295.67,194.63a4.27,4.27,0,1,1-3.22,5.11A4.28,4.28,0,0,1,295.67,194.63Z" transform="translate(23.22 161.97)"/><path class="cls-5" d="M278.85,120.56a4.27,4.27,0,1,1-3.21,5.1A4.27,4.27,0,0,1,278.85,120.56Z" transform="translate(23.22 161.97)"/><path class="cls-5" d="M388.64,108.75a4.27,4.27,0,1,1-3.21,5.11A4.28,4.28,0,0,1,388.64,108.75Z" transform="translate(23.22 161.97)"/><path class="cls-5" d="M414.8,144.3a4.27,4.27,0,1,1-3.22,5.1A4.27,4.27,0,0,1,414.8,144.3Z" transform="translate(23.22 161.97)"/><path class="cls-5" d="M473.21,154.33a4.26,4.26,0,1,1-3.23,5.1A4.27,4.27,0,0,1,473.21,154.33Z" transform="translate(23.22 161.97)"/></g></g></svg>