<svg id="ACPaaS_UI" data-name="ACPaaS UI" xmlns="http://www.w3.org/2000/svg" viewBox="0 0 668 200"><defs><style>.cls-1{fill:#00b3c4;}.cls-2{fill:#ffffff;}</style></defs><title>Artboard 1</title><path class="cls-1" d="M208.67,127.25l-20.8-36a4.62,4.62,0,0,0-4-2.32H165.58l9.09-15.76a4.65,4.65,0,0,0,0-4.62l-20.8-36a4.67,4.67,0,0,0-4-2.31H108.2a4.62,4.62,0,0,0-4,2.31l-20.86,36a4.59,4.59,0,0,0,0,4.64L92.5,89H74.4a4.62,4.62,0,0,0-4,2.31l-20.86,36a4.65,4.65,0,0,0,0,4.65l21,36a4.64,4.64,0,0,0,4,2.3h41.58a4.65,4.65,0,0,0,4-2.32l9-15.58L138.35,168a4.63,4.63,0,0,0,4,2.27h41.59a4.67,4.67,0,0,0,4-2.31l20.78-36A4.66,4.66,0,0,0,208.67,127.25ZM108.86,36h37L127.41,68H90.33ZM56.55,132.48H93.62l18.47,32H75.16Zm75.75,13.93a3.8,3.8,0,0,0-3.24-1.85h0a3.78,3.78,0,0,0-3.23,1.88l-8.72,15.11-18.47-32,16.85-29.19a8.71,8.71,0,1,0-5-2.89L93.62,126.7H56.54l18.53-32H96a3.75,3.75,0,0,0,3.25-5.64L90.34,73.77h37.07L144.28,103a8.71,8.71,0,1,0,5-2.89L132.41,70.88l18.46-32,18.46,32-10.5,18.2a3.76,3.76,0,0,0,3.26,5.64h17.78l-18.45,32H127.53a8.72,8.72,0,1,0,0,5.77h33.89l18.46,32H143Zm52.58,15.13-18.46-32,18.45-32,18.47,32Z"/><path class="cls-2" d="M265.15,119.72H247.82L245.25,132H231l16.73-64.35h17.52L282.17,132H267.82Zm-14.76-11.08h12.18l-5.94-29h-.2Z"/><path class="cls-2" d="M307.42,121.9c3.16,0,5.46-.76,6.88-2.28s2.13-4.19,2.13-8h13.66q0,11.28-5.35,16.43t-17.32,5.15q-12,0-17.58-5.55t-5.59-17.52V89.53q0-12.27,5.79-17.67t17.38-5.4q12,0,17.32,5.1t5.35,16.38H316.43q0-5.43-2.13-7.82c-1.42-1.58-3.72-2.37-6.88-2.37s-5.35.73-6.93,2.18-2.38,4-2.38,7.52V112.2q0,5.34,2.43,7.52C302.15,121.18,304.45,121.9,307.42,121.9Z"/><path class="cls-2" d="M336.82,67.65H358.9a53,53,0,0,1,10,.84,16,16,0,0,1,7.18,3.17A14,14,0,0,1,380.43,78a32.67,32.67,0,0,1,1.43,10.6,31.68,31.68,0,0,1-1.38,10.15,14.22,14.22,0,0,1-4.21,6.38,16.33,16.33,0,0,1-7.13,3.32,47.31,47.31,0,0,1-10.05.94h-8.41V132H336.82ZM358.9,98.54q4.74,0,6.93-2T368,88.74c0-3.76-.71-6.34-2.12-7.72s-3.72-2.08-6.88-2.08h-8.32v19.6Z"/><path class="cls-2" d="M385.13,118.54q0-6.54,3.66-10.3c2.45-2.51,6.6-4,12.48-4.36l14-1V98.54q0-3.47-1.64-4.9T407.7,92.2q-4.35,0-5.94,1.54t-1.58,4.9H386.91q0-8.52,4.76-12.92t15.93-4.41q11.49,0,16.29,4.26t4.8,13V132h-9.8l-2.28-4.26a23.45,23.45,0,0,1-15.14,5.45q-8.33,0-12.33-3.91T385.13,118.54Zm19,3.76a17.14,17.14,0,0,0,6-1,16.39,16.39,0,0,0,5.05-3v-7.72l-11.29,1.28c-3.56.4-5.35,2.22-5.35,5.45a4.6,4.6,0,0,0,1.54,3.81A6.16,6.16,0,0,0,404.14,122.3Z"/><path class="cls-2" d="M433.94,118.54q0-6.54,3.66-10.3t12.47-4.36l14-1V98.54q0-3.47-1.63-4.9t-5.89-1.44q-4.36,0-5.94,1.54T449,98.64H435.72q0-8.52,4.75-12.92t15.94-4.41q11.49,0,16.29,4.26t4.8,13V132h-9.8l-2.28-4.26a23.48,23.48,0,0,1-15.15,5.45q-8.31,0-12.32-3.91T433.94,118.54Zm19,3.76a17.14,17.14,0,0,0,6-1,16.39,16.39,0,0,0,5-3v-7.72l-11.28,1.28q-5.36.6-5.35,5.45a4.57,4.57,0,0,0,1.54,3.81A6.13,6.13,0,0,0,452.94,122.3Z"/><path class="cls-2" d="M516.11,112.89a8.9,8.9,0,0,0-.5-3.17,5.12,5.12,0,0,0-1.88-2.27,13.23,13.23,0,0,0-4-1.74c-1.72-.49-4-1-6.83-1.53a46.32,46.32,0,0,1-8.37-2.13,19,19,0,0,1-6.08-3.51,13.43,13.43,0,0,1-3.72-5.45,22.85,22.85,0,0,1-1.23-8q0-8.61,5.49-13.61t17.28-5a44.79,44.79,0,0,1,10.34,1,17.38,17.38,0,0,1,7.08,3.32,12.84,12.84,0,0,1,4,5.89A27.35,27.35,0,0,1,529,85.47H515.12c0-2.77-.7-4.75-2.08-5.94s-3.67-1.78-6.83-1.78-5.4.63-6.69,1.88a7.42,7.42,0,0,0-1.93,5.54,12.22,12.22,0,0,0,.5,3.72,6,6,0,0,0,1.78,2.67,10.16,10.16,0,0,0,3.56,1.88,42.14,42.14,0,0,0,5.94,1.34,61,61,0,0,1,10,2.37,19.25,19.25,0,0,1,6.34,3.47,11,11,0,0,1,3.32,5,23.6,23.6,0,0,1,.94,7,25.1,25.1,0,0,1-1.64,9.65,15.49,15.49,0,0,1-4.7,6.33,18.8,18.8,0,0,1-7.42,3.47,42.61,42.61,0,0,1-9.81,1,44.12,44.12,0,0,1-10.79-1.14,17.72,17.72,0,0,1-7.32-3.61,14.37,14.37,0,0,1-4.21-6.34,28.62,28.62,0,0,1-1.34-9.31H496.6q0,5.05,2.33,7.08c1.55,1.36,4,2,7.47,2s6.08-.66,7.53-2S516.11,116.26,516.11,112.89Z"/><path class="cls-2" d="M565.21,67.65V112.1q0,5.15,2.08,7.43t7.13,2.27q5,0,7.08-2.27t2-7.43V67.65h13.86v43.76a31.2,31.2,0,0,1-1.48,10.39,15.7,15.7,0,0,1-4.36,6.69,16.48,16.48,0,0,1-7.17,3.56,42.83,42.83,0,0,1-10,1,43.4,43.4,0,0,1-10-1,16.5,16.5,0,0,1-7.23-3.56,15.79,15.79,0,0,1-4.36-6.69,31.2,31.2,0,0,1-1.48-10.39V67.65Z"/><path class="cls-2" d="M605.6,67.65h13.86V132H605.6Z"/></svg>
