<?xml version="1.0" encoding="utf-8"?>
<!-- Generator: Adobe Illustrator 18.1.1, SVG Export Plug-In . SVG Version: 6.00 Build 0)  -->
<!DOCTYPE svg PUBLIC "-//W3C//DTD SVG 1.1//EN" "http://www.w3.org/Graphics/SVG/1.1/DTD/svg11.dtd">
<svg version="1.1" id="Digipolis" xmlns="http://www.w3.org/2000/svg" xmlns:xlink="http://www.w3.org/1999/xlink" x="0px" y="0px"
	 viewBox="0 0 1024 1024" enable-background="new 0 0 1024 1024" xml:space="preserve">
<path fill="#FFFFFF" d="M862,512c0,193.3-156.7,350-350,350c-193.3,0-350-156.7-350-350s156.7-350,350-350
	C705.3,162,862,318.7,862,512z M512,249.1c-145.2,0-262.9,117.7-262.9,262.9S366.8,774.9,512,774.9c145.2,0,262.9-117.7,262.9-262.9
	S657.2,249.1,512,249.1z"/>
<path fill="#FFFFFF" d="M647.6,671.1H378.5c0,0-30.2-0.7-30.2-30.8c0-30,0-188.3,0-188.3s1.6-30.8,30.2-30.8s182.7,0,182.7,0v-90.5
	c0,0-0.6-4.7,3.8-4.7s83.5,0,83.5,0s3.9,0.3,3.9,5.7s0,150.6,0,150.6s-2.3,29.2-29.2,29.2c-26.9,0-184,0-184,0v69.6H648
	c0,0,4.4-0.1,4.4,4.4c0,4.5,0,82.3,0,82.3S652.7,671.1,647.6,671.1z"/>
</svg>
